<mxfile host="65bd71144e">
    <diagram id="qVl_uUjLibi-1ifljeTk" name="Page-1">
        <mxGraphModel dx="1261" dy="504" grid="1" gridSize="10" guides="1" tooltips="1" connect="1" arrows="1" fold="1" page="1" pageScale="1" pageWidth="850" pageHeight="1100" math="0" shadow="0">
            <root>
                <mxCell id="0"/>
                <mxCell id="1" parent="0"/>
                <mxCell id="2" value="OAuth 2.0" style="rounded=1;whiteSpace=wrap;html=1;fontStyle=1;fontSize=16;" parent="1" vertex="1">
                    <mxGeometry x="365" y="20" width="120" height="40" as="geometry"/>
                </mxCell>
                <mxCell id="3" value="&lt;b&gt;OpenID Connect&lt;/b&gt;" style="rounded=0;whiteSpace=wrap;html=1;fontSize=16;" parent="1" vertex="1">
                    <mxGeometry x="510" y="450" width="100" height="50" as="geometry"/>
                </mxCell>
                <mxCell id="4" value="Flows" style="rounded=0;whiteSpace=wrap;html=1;fontSize=16;" parent="1" vertex="1">
                    <mxGeometry x="490" y="560" width="120" height="60" as="geometry"/>
                </mxCell>
                <mxCell id="5" value="Roles" style="rounded=0;whiteSpace=wrap;html=1;fontSize=16;" parent="1" vertex="1">
                    <mxGeometry x="218.35" y="90" width="200" height="60" as="geometry"/>
                </mxCell>
                <mxCell id="6" value="" style="shape=image;verticalLabelPosition=bottom;labelBackgroundColor=#ffffff;verticalAlign=top;aspect=fixed;imageAspect=0;image=data:image/webp,UklGRqZlAABXRUJQVlA4TJllAAAvu8I5AFWH47aRHElS/lmP292zz4iYAP6ZbvlW3nZvowKaFFCTKAIKCgIqAioiINpoD+RNK74l4U19TN+KM+crwd2JCqKPqNxm7T5zzxeeDnJvcn881INn+pAPK76bRtCtpi/WHPaI14PFYdO3xBtxc8LLVQGoshkVL954wfhqS/nbpvnZ/ud34+bfcnrvPdn3Mr13sahSnaQKSXWNeu+998qi3ilqJBaJ6oVVbILPeX/v+33f3+99ASpFGq9iMD1CesIIyBmAA5wDFx4YhCD8FhoYXA2ZHjl9TJeVjPSQgNyZdjBgylkInJ99FgfCgCknTQOfFKW3cbeF9ESepbxIpdyOB0oAZYAhDIHIkGkMcBZDG2clYZZSejLuReP0yLsIXg0gVwFyOXCZA0MQhGND8uxsQitDqS4TIasZpEfujekJlZ0hF0IgiAFdeM5CA+hdCAq8MpjiwvRCuJtei4C7Js2FKSdFwg+EApBA6MYAMxBOmpSeDJcD7gYDd5vpVRjgDKIVX8DEfJWTwRlATDsbYvBL0yA9Uja9FxrdGnhlaNLoXmSZiyPYwrEhGjlunPSEsxvCSwvulntTnK5ZHkju1sA43IgwCBcewIqgeRZieu9R3G3NcuBbAABVrW3bqgYkQSJIgvUeiCsOcVck7oIETR/BQoPh9gVjvrv7nF8wfmA+zm9w11bNrcqTAACJbNu2Rbh7tGI3ZjfG3d3di3uXfO+au7u7B0QQhAdEEEEY/acF21bcVlonw7PbSbBGJLAsu//wWNu2zLWcaXVoZnbMIealUpFUkgpUXGJtMTNUlaCqJJWwhFvSlvYWbTGXVCoW771O0T46e0cOlZojr85MoU9kijBy4wRkhrAdewLMGLInQNHJzKSzHNod9erMFB1nDKNgZw7ZaTOYPYWTOWM7wzHs1Mxshw3ZGYSdMoVnHqYRnMgTqMjMFDnEzMsZo5YjZmZmp+7QGLMzr+ZueXXoMTCEfKBpBMdM25nDhsiUMo+gY8fKHDJnGPMIGDKv9QzBjBlGRGEAAEKttrW6uu667JqqoVq2a2lm2nItu93Tb/hsPn62bdu2/T3vGZYGADgjS4qqgnL3M8bGbW3+gTnvHm2Pbc/s3u3dm5+tfmwVOkkl+ZKq2Hb678BtJEVyHS0z794DqOj/t8p1FnnLzMzMzMzMzMzMzMzMzIxz4H3f01V0B+NK2UDs3UH5rGFUKa6KNxA3qpQ1VN4FjJqdFN34K8fPIk5JxRXVuCwjrqi6jVF1UUXXZYw7quii7hqi+qqiGx9ZpnFdQ1SWURwZP66orqt/n/FxRTUbKOX5m1F1UaW4q0qzgWyguJO4+FlHUZ2jLsqiygKKcUUZnwV0D3UXNxDRf0dsIylSctR7VMt48J4MgMl1M4X/pvDfFP6bol+JgTIRVqOp+qFUY3RVj65qkyBlGQ4JMBgbaYkBEEI8rHQk+E0xcXucHxcrhBIBMB7SxlD1Q6n67cREWnygkEkCwIRYjarqdlFVbQKkOnDRw9UgKx9g5/3srI+TTxfdeYw1dE7YfyfQSWElIWQUj2jrjrR/2Y7hFiQmAzKq68jX9m0T2bslIUDSsbvsTnBDMPG+Yfb2qPztU/l+qawZNu5KcMdB2mQYsBpKMZtk4un5cFmGKQ5WQrKR0iwTxcIqmYfuRPCD0ck+qEzZG5UfhE7DcWEkxUqCAYFJsdK76OTfJ8yVfVJZY0zylO+WQ57dJbdEUlskoCIQpFM09gpDF3HHp91AMRq/+xGALrFGVleZ01rNEaD1xzqRVhJwbPO+AVoq4NjGW10Sa4Bd0hSXkRXjEHSiqGQ/VDaIZCXEgEV8rLTGBTc/kGyTmxQow8hG+5zft+TwNYaqHZxOFWb8uxe9e+M0IdbCsaHCTGgmHB9p7GQuF07S3Ltq+Elux5NFFI/oc20Om6nHN19MY9vOpqsl0MxLGa/nIRDH8JQGmmig8c2nWujGN9+Dhlm7N+2mSVNGVfTTKXlaYKK+JTuyaoyoGL2I7s3lUfYHsz/goOpQqr5/mCmtsuG9EYuhakHoROlZdHlapj/J3jfM9k1lYblwWMUcU9WepTvRPRBMlf3C7HhcEmHQpeDtDeZ7p7IwXPhlx1K1IWSzeSZ6ezDfG5V3znuJMeDitikxSsuQ5apeoy0IAM29K0f17jyn675X5ybrqJH3ixBVdBim+N2y+/0haBuaP5iOgMeC5jbdxPsEOqkWNVusVEE60Pa/J0V5t62wobJ3mHcruLGxSimlcZDSi+jsC2bKsaIiXYVDN4KnKAeG6WiqQewuL4U3unufktO75P5uSqnD7/JXOuJ9Bw6XdlCYKi2x0cRIpZSOhbRG6Vg5OJ18Wy60hlQ/Ho1nuca0H6OMbH2sT77AIT6AnZ501fnpYW+UoYrG1T8jTGwjj+7xeiQlieW6tfNTtRjDvQcnIZKqDCpbd+bfOhfEA4rKVmEXgqf4/yMV0zfKJIqSoVvBEwyfjKIYlZWW2fDeOHQueHujsjwjKQY18iP6FJ1H3CfMBpZtLj/0VpRSGnlEFAZaqFRx9VIIAiQpWCIMnkapfKVUJU90AJgpB6XT2Fhh6kdy9gHzA9BZCiU4k8THgKkD3r+UD/05GYZWzKB0cjCYRFAs+rtDcdEB6SyDsl8qvZRLuZTOBJ9pXKQOLlstc9HBYfJHWuGiSLKVAChkRlTMO1PCccHuHCuC11GCMck3Z5RgNEW/EP8ueM+FiEm7Nw3QVL200tXsa3VuLU1KN/NSlQ6TJb1tTtFcRyItMDbasAhZxoULDz/BR5jgHVy0peuFLuKBo8soo5uXOeAeolYWLtzKUx1z8KTtXbWFjdL5Uc80Ud+9XmfHfagSLtzse1WBfpbnmkkISbuJD8bFmWrSLklpb5tz4cJbDj3DN2/+uSrsm1diFs13NUCVHZ8Rx7cuUn3LeVyvcIvlqp3bJnxgmbD/YhhybrUuPP9h+l+krebqlPXCZciAMTrBwGUkoe5p665pqlbKQONNVLhwykEiTEd10R1HtRr1ChZ4kVE9u0/SiwmRegCYKvfyOVk2F1tiQ2XvMB9ZNZiL/haYSAnHBgNK9r5gnmFExWBqjQuVRpnk3TJElMx9w8x/D3pvTbPxvqjMX9kHlVWuXLkDIWAIwqTXfvM3/0BvH+bKxfcguAkBINKvaPsrPQiOC7vxkZpN+f4qJTggTJUwXOhA5pDXDeBUyKP7/RHM+A4Yowm10khk71YGWKHxJgSABUcc565gJmcMx0nDZmsAOOR1a8w0T5gs1oIRr9q0o/MeAMJlSPxuSWl3ByMQnERNNCAAwL0jBke177sZq4n6rlClCozIK85iLHyQGRAmV7eaq2UA0K64a3XqGLqIoVKs/pZmO7uhZ9bSYMR6iaQXkVXDX/kDlCVdCa6/f7+ykwQoxkZVje9y1QNJdkykHUtpn/N/NxGHURS9b8nZP50p7fDB8Y53vLtkUB6xTS74wEPK5l0dGKbKVQ+nmCTiAjUUGylfzUDZ3Y6iPLlKBf8fKM0wcSKgEBlr6Gj+uQRazteONKJvkcGM80hjGxMzjb2icS3Xbya0njOg4hXYsaVGfUqpZQcXHVQSJlubMLGkjQdiwiH7YcHU+iMxSXoxuGQpyj9lc57X8O9JdJcxkhAoHfO+/7HGx9prt80Fyh+JgXQS3Ffvj84GkO1EGFDqMrRs/h2lLT44NYFBZXs/MFPa4YJvzmF7ZW9U3ovgqDSnHIJOlSbYJC2HM+1GE2tALON95tbSJDXknnZGSpfq5KRbcKhZXrv/xbm9q8YAdHzaqrLufWMeZnpbsO+VWRfb+OTJJ8N+8OBSu/YoI/uG9FBvRUQ/t2bKVQ+wzdTXKh1+cgsfWLs7GOr1uTbpaK7/G7qIWZRr56YZOLoMN7UNsECz+gGpn0tPqV1E/9Jlsp/tKPM/WEsFDARrw/lVNNpC+TbdpOedsZkXZFT92YTqo3j2CoHQdp0YateuPZ75rD7M9CrDfec0w8zwPtfnNh7qq6VJL86jKF0LHpt+Jfs13j6V/VPjHWbjIu2PKO3ywTJ0UNl6xAymQgjBxBNjlbH0bokNldO/a26xsNIEkyj7hdloqk45fD4lQ6+iQ06bLVPJGjYA1pqOUrsASimt28lpC3hN2iWZUq6rozoPrpsUqsGQSAumbOR9CLmicVVal2oLSmkCnSzJIsc41pNSarqeMxAuUxeilAbYUUp1NZuql5B73Ro9GAyzTdr1UKqL5FvMgYoe7Dc5NWDob4lWonSLOIY7KcaAss3JvxvBM+Ji6n/2iLJFaUxVOzhMlNBc9M0JkP7YUdvnfeVYz8nptZ/S/xE74z0XAbHEebhJrmPMD5F8a69bU/qKOwP2EwzcTD3tDIytRUImIUsVELKEmVuBlHLJthWllOo7OmuBnFFdB6WU2kV3igEW2GbpK9YDOjntAhico7kEpZRO0nu/HNDxWefILqpLuALBSNjRWbeeD02ayTCKef7a4gM2PYhuBv++JMeF0omR0hwbKad/IqNG41+u/KwRFUM4HfK+cjA6HRPpnLZ/caU5JvrGlEsURVeU98YUB6t/RPmzRGTrhca1XpRS3dLtXzblUoORMuNYL6ZNKA/jWA9zyD3sDaa80AoyGm2hhpQm0D1DzK/WMphp/7JzZPUdSwLnmptdwC1rAcj21bZJihEd6Z9WaYaJdmfRNucrGe6cUjqEbL640iXvpqXUZQ//Qz+gOk1/ucrrDqFYlFM0VSuh/GDyH7OpNlCMDRxlw07xU3haUCORvfvWALjMx8fSQTsQ7n1sTIk1gJ/yWgQOO73SgBnMAUJtPNTcaBz9XbGpGgIA95Jj2s+kF3GB0gidKMXGUjWWvhPTKPuhsoemNDEGbfKBsneYX8y9GeWhX1z5T3Gxoj4unfD+3qhc6Zj3T81tIqTuF2ZK82zkwBBF1e/M/3QE+5VV49ZamgCyfdhMvfDCoYtYIKlcIfe0O3rwk06GeUN6uAZAOaezdZkcOj7rvflh6a7RVWKwlwG505M+KabbZce853/opzyqylQeXjb9lRaZyOi/PMsBYaaw5NARZIvhXp6U0zXw5zKUbJ5dCUYnkyCFpJE6OJ0of2cCrDLK1Z9of+YLuUhKLsrwXgbo9nCIq78ppZcpkFJXBcx06bxYdHDRAjmjOQWtKMMvjZ7SgJI8sSSW8elnhTYAnEslvXyc5sKUA8N0FNVwYYiK9MaZRKn8vJQucw2fmY3SJhd8c0rb5ENlnvGQxtCn6OyTylR1IvhH5W0cpDbOxMpXG1y22fpyOsRA+oiK8YsYs8oh+cD/M3//H8HsvxGUTsZDKgFDz2yB0M5n3MdnIcC8LKdetsfzF7xVbEypzodFQD4gSAfOYGIsVxSPqM7hlayMJNSCU/kBG2xEjw7ssjildDzzVRpo57b1IfITy0DuKtnrKPWxo4cZwy0Sah9K514YcF0qKaYx+stmUJpk4hEU87ocEmPwOUdQjGaYWPEPw4VGTdFxkHJTytm7EdyBJIuR3kTnwpSDwPRfUXpX/nuj8i94VEqP+t7vXmGIibSgdKI0y8ZG25AuLnyculPe8/dvlwt+N2sv5GkyhGYjRj/kCLL54koTdPwTHOg370e09wlz/85570cQMK9RZSJMFve7PA8zzS/zXDZA0HZxSi7VyxuANQeMsSHmefrZWOjqeAOui80+5ByPEFi2L5hpUQ6B+crP3+8yPVfjTQi4DxRlOppeRmDe8IFl/uLXLQOtPNVuRMYzn06A/YOl+f9dJvu6+pPk7PC87X+RbVLcGsgZx/DQpJc8T6tsqCg3/wWe/DWaYuMSinINz0kpvYkMSggmVmmeTtsu5ytKChd6aQelU+VndcF74WVrUMm6mK+2b5gfmuHeDsn5SoZWuGhgyYogW72K7m3wMZhsXbzyaf9wj4LLSJ+Ss7uRcFyoKIfuX7KNxQNKa1ygKIegk84Er3vBDcVGe6dy5aZiIp0SkL/VXA2WyLPZcaBL5wQj3cQHFjSRFvS4OwbpQNVieg83xVmxlv5sJpTWtgdL/LIQidcjO7hoAACwNls0G5hxP1rSzcM1fvWLK4xcfBtcMAHWHtSoEvEHlJvvS3JYdgNXVma9S5oYg/+1f5gq/vukspv/tB/6qfZNZQz0oXfwV/YO85/xle7oQck95+kUlhyUTt+tkS/kr7z4kIrFKNJlHPMRGZ3hb+r6XfigDUMVKwbDIpmBGhMM3Fz0xcpwoxsW81VhHdG/kLHvOt7HMj2UUsfnYpbYr7PjbmZgswASNJeXilReMkMwEnZ60k3ce9Gkmtxb8hmbZOJpjnVzV3kb18XYW3dz03zocVSVZWUQhgunOf2oimFUobnSdji/UTpuhE5bYsNBZDsWVoaVjcaY+Fh3buxBn/MB/8Q0f6JVLvw4NC5W/uI0rbPBkzLq0b9tmuaZaHoWLgNLVlAmmYYlzTHRTJTS6dvhgtP1KjqfU2W78q98/9NN8yWe6jIek7JL5+XVag5HdR1sdGWLnzHHWlOtVzeKRywWslRNWZdWreHltTFVzaRdsvacW3uttdh6lG60o5fXfTO7udfsa21u46G5fa9XyrTdWEOHntKAZF5eR/dhKH3ekl45zrjZaMP73MyNx41LZPPaJf0pK22XrUYRU/rJpvZK8QrGEupkMi+v1b8jpZTGcJwVa3jlSNHz9mSpT5Wu5JJe2To+a+d7aTr5XFR/kdozhVkGWGAlS3aR6jai75BSKAWQqHLhvkSZPyfgJazEOiHLqiO8l5Lk5rqkhhKr8+5StZfbhbqo6V5y3V11Fl0Ng0jN95W7WMJYbXlYY1lYa2nQl6R0cYUuoSiGakwCODis4OIQnQDUZYVEANCxCJAAADo2AeIBQMcDIA4AdHwCxCIArLAKrFgVqk5IABoLgI9uXOIH9FYpdAIC/DIXhxgEcKAPn5aukNZlxrQORpdezEGl0MvwQpstsOnK9BEmAoB+6gkIQGMTgFnicQlAky9AryQmAehpfhkoyQrYZfhNh2SdPiWsYgIwKQB00yuh4xHgAenxJyEAnYgAV0QnJsDx6ad2o3EIYGN8X5OPQwDjQqu80DI/9ArPSJ8KcC36TYBy3coGniejL38z9Pivzri7ZiiZbVzcK9mUcekI9NZfkJ5mRpp2BReXFWReYhW+UeEuG5hU+m9VB/QFfiP66sdXHTnHg/qNoDrNV6VfcUaa9sVcXGZkFPobFUw2rhMvkJzt7q7+CIxCM+6uaqL6UzTAVVy30pNBtoMD8x4fwSaIa/NkKqNodcYo+nnVjcdP8k1p4Bsq781VOr+y80MrxoX+wVeiMpSKkuDl/z5jKF8RVD2V69AZjDF7mq9KHVZwcXkx4wkq7YwOaVdwcViMC02f0ukRGCPnJkpCkQVOtfA7lOo0ZUOvZAHmaE1MAPrwDi4rMKamGR0cXszB4ZiBzEJzDeLVOabGzUwQeEGadkYXesxEBKAvllZlgpoxrcsKaY0nix8cnwDGQ/mj/33m1Mgyco0vxSXAv6VXcgSBvijCSgaQARTR57GUxMGF4xJ14L5E07JeMlBqYCkGMjFZoV3S4ubmvK+kl0DBakWpQhtY77GC6ERCFFrHPnAdADexA+EgUlC9Na2OqMSBLsQllpGhCe9xIE5vZZkU+Baa1zRBUHphxg/JHSUYUYEuNDCQ6B5Prpsp/PcOkiTQypjaZwWjjIXBRIqaBCks5jHFcB8cT1YnNzWeQXRo4u0hpSMsz3nOyJ4m4Vyr/Whn6wXIkZloRxPR0f9uT36qI6MYCaZ0dXUaW6poXsTp4exR+FJvrbZTjWAMZfyHWLXgikpinISp43sgxSlScxrfZRNPe0Q08c6JpzME+hbcCXhrdUtvNQCG6YQyvqdJPo81b3XnzsGTZxqajm/mcR+3H0jT4TTr6GjuDDKDLVVUP/EM2XYa6+ltcuEw7WRHd4KwSkI8/ZvnLhR7VMEYg7j7NPGuhGh2CzUASSIpqT7W67vYNIFhBAbpOzScPPPqtpFsB8vQnjqoB4o/S1SfahtPtVe1gBsGVz3/r+xaNRP8BGLV+O/QasL+oQOdPvr/fEpjdfNO+nn7/3vGgSACqjsO9ucvwPO9TSshHTlFTZ75ZTiYTIqlBVNXIW70+Xbn0d7qag+iBQH9+b/h1dWtPaWU7iv/22s1mnVqR/N0gEDHWL6bjvDTNnFXHV6Z7i0qSH4Epom+gChO4Z1n27Nnkck5r57BZhJKkHS6oz9OrfaS9CCgN/c3srq6tSeX0IKi//daRbFOHSrGCKK1glEM57Bdc5hyuK9qBLJsII/shWqPDidTweScNxmEvWh8WXJwdMUTOD8cLjsPru5aNRL9OGK94Z+B1YR9Q/td2n+hNL72jNRzDp2itPiwqpfcsgWvzmPqQqolOzGYjAGTc1o+vHVqk7DG+o9/SYNa5o5ka2hBHxk83RuX7rkglmAZmQw8A1umjpAxFG+MDGTvJt6R7OiP93RAEEfKlSe6rRegZkwRAxbrD40mv/yiw+c5hKJ7q79KKY3Vc/RqEoNzYUJZn1R7DW3iPWhldwAMytsTyeZjxtPTXvTqmP+16KSaczgj70HzdIdBP5I9Lm+vbumth8E4D1dk9DRZF5DmE9TMWZROrpsp/DeF/96RC5apNi4yUIwNGKPiSqUymG8M92GlNia1Rhzf0gwaXv6EuDJQlEbwL8tuPK710quFXZWG4YNr/4u0n5W571Uqruw1cJSlGW1YxDI9SQigRvrskUf2NIOG2Xbiyp8YKMoGDy7DTW3TmaiLRczBq8jm1tM23oTByCL1IT4oxBViVzRvolH6tn1LBlikteL1PIKbDEirNJ0fdS1Uqt0bbaFgbdjI+xAiSznXmZuuorbvSLroztNRYAFRXWKGNXOWCdKBEF3kYCRsogFTdnDR7jme5dKpRUIdWPmZ2nhonGYORhYyRJbU2uAkcrbu9LhL46mOJdJWd3tYLcQbv6ka+ghKZ7lpDVuIOCGqZbeHfczBw0NAHrm6SA1N1RFEHDlUqeprlWbXCc4jVdfx3gkiTtB20VKhTreFTmCVLvPlIPLYPO7GQlYCGpaE2LN7tUlMt3AVqj7WZ3uIPTmKegg9Cc4g/iEVuojTCGvC/rvDizYQ4k+Z5eJ3S8HW/d97Wog/2rBZsrFAyrbxQLQQf2xuub6gcq1vC/Gn0RbqOj6YCWiPNu8JJCGu91pJGGbb20IS4rSsXpAJ8LohCbFdfykBa4Gr1oA0ZA0r4c5Oe1pIRLQ97UweQpins+MeUhG/eQVQJRukItct3JlUlvWCVGSuUkL911DFCpIRbXkLAfS+MdlCMuJVlbcJBu6W8zWkI7/YTSBrt5rDkAzyEe9XEG5dpDpISJqsl/PzX5fWbuwVQUISNlvzrb9adpnsISEc0umF2YK5bxnSEdvBQouHEL6ruZRAq091Xb7iGJ5waQIpoT2Jnp800jJCfXcVRB1pGVL1UgmxyRUmV0NSBGsX5XU8v6eDtCSlFS9bVIa0ZCpBNmHWgrSkk9POlL+rDdqGkJZk41khrBKqhCUGnsmOj8FCzCAxHGoK4NNDYkw7+hvBv+KaGVKT+fjZUys11uSz/9OitXQNqclm/OutlvcvNVKfl7clIDkWMuXlXOBNmHSCYzuNvP9/dQiO+KIUvft4Vs3IZZnWnO8BvGfhs5cLakFAZf91n5cDZLhZLyzE7hBaKtSFeLtjZ0hNfPV8vy9HjoCqab7VMUp9hpvv4XtJsyxxU1DLfBq5mHfy4TOMUYt6qSJOzbbfpF2c162bqpdkDvFB01VcRnVKz7WHnYGs4jhkJevjhAFxHgTUq5H1hllisPb/OXGzpiANFsan1NNQ8rDoRWCA0W0aA4Tt4rYwC7p/XAIQO5fr4SR0jcMekOI8lOccGUkBKM/J7u+sJ7zLpjgpuHd5YOgpLWLgewTolaBD0Nk4cjM4+W8ObpsLQcry3eABqBVtLUUlbhN3iBMGtXiLEFjBQ6epY1zL4+kZ3cl72flXY6//huiSi2+j+VTkfjXPdsAIKVneeaa3HKa3DbAXGJ+p41O8XpsIaC/PTgvqckutRVpDLJlVmmwvhlp8zOtKpJH3qy4SRvxuEHm07eKIdL9/DxohtBYdMV8aiUlohAMBXQhSTnCMlzm1CTuN48zCMIurs5gmZuUMEBR1RSkB21Kmag9yBABeFX1dSPWs83uExXj0XdyBC7VhNYl6Q2zgVZs7QUDNfOuoq39Gr02BKG/skSa+SYDYVfzXHVFqfpMcaA2ln9kptEwB8NN2aETcCU3IZfLW3cHAR3e7Mn7P1tMu6eaQju424/WsHV7/Q3xOxNONhM0SErQUlpe7jrCV0oJvUmcFeNS9LE+yluvQ+VkG1IaaHIzWch1m0NoM7h0zbjZRmn251QmN8CCgfoY3jl7eAsJWQqlbIreFkNUo17mMWEruNC3I7KQ13AxvtJZvM0OjHAioEhRN5NZQaXGTZsRdNuSWtX50MEYTGRUWCF1FzHhE7mQiFzOZSyZ35qBXi5jF2U4ExPwcp8wsqOneKCwEsj2R0uKlTAukjgCI43GePVxL90u0pgBxApJ41OhF86sS5haH+LAAcebn4zhB2wURZiHTwtTT05o8ANgkTKVr6YFNYlcgoAteJsi3BQ+cPSnTmjR46TjLK0Qsh3KrL7fZfknGFRquDcT2KN1auy8AeLvXyHUEDyxzaaziBMh2J+l+7dv2jp8HpA6HhJk4y6vKnNEDZ3kXnvWZDbmlpPqztdhFDuBkQ5kzXJO5DEGGRmgo3mctwy971gGEKWiIjpkgd+0PuOm4wOTlOTRmiYNHTU31R1+V5zD9EzToFSdz0goNq3n2QGlxOjn7D2m7CPnq1GRnLoIUZgGgKSAPj24Avvk612EwylugNmWZMwmOMQHRuofb1SFmid5Mmb61m47BG1meeO+UKXEFBHQpTBZya6C0eKlTohsKIF4L8hzqg35Lpo+XuIICsxuyJjGLRp4tXLMmclWitJSEmeSrFFY3fl5cIaBW0lQ9CbS7BabC6oiTfPR8sSbxCM8Fdt7OtYcPLPEo3hUGlBYidS9CQ8k+HxQQ5+wQUC1qMdtPbrVDYmAFQdF4nwdOnpaoTR7CVCN168/0VVK3IXVF66JgBdyMm2e32CVwsti5WGHxPyhyhf1t+MXxDL8RFsq+KmYJrDjV7eHIWyZeLKAnSvEQrecGEK1RrYFe9bM8yVqOU+fmGZDaWsJ08lV5DiskOsf1X85XKSzuugi/gieKn78JnPy63zRsKcpxLSOW0jtNmWbgWfMyJ6O1fJsRHJuDgCoh4URhCZQWN2EOPIwd1oabZw/2zvQpPuUdkFtOhjfZ7+/EKQa0uprtimPn1czJ+IFlLi/DL1LaLDxqZpYnCovMd7I2/BxHtPYmjDIPr4oqc0YxC0upK863G8+wABV57uzapvnnigxqU8mxY2Ywi16ZeZfD9n5igOOWa+LNQmyc6vFzszxzz0LIayfcZnEu8d44UaGhN4GktXK3SQLp4TRtapOAIv0sqlp9CVBpW1rKwqMuKHTtaaDo5fmVKj9hgfEup2cepfsVar9+PKuT8yvJQfK766VujbzWIlCFjnXvCgDYeUsLk8Wm+Z4AuZW2Dox6BRvxs20TmEWu3rxNuamrQ5aUNkdqW9WyUauY5mX0fkZHSwnr5EGtDL7pjOD1Y4SEcB1cbZR4alUyTsaaR3hak0n1H57GVf1c99CUaRrk+luifDyaTCR6fmVLTxWzfBGOUr35CA3t450ndbiQcKFF4BaRo1blQ4xWq2ju2ZjHzJAz2LyHH6pVcQ8XH2ItfAvz8BVED5EaulOmDcNDnI17Z6lWEA3jwQv1cdpdQpFR3oGG3NFS/EpV0DhSG6C6UjNBk4iaJMR1crdGXo2TkbZhmtrmrShNJdtVGEGyXraDwCg8SkV6+HaZNm6SVHnOGQFNm0RNw7hboU40FGzjCP/b4gQ6RMdNkHfG5GkgSCSbhmEjFASt0e4du36EHKcEanXQOohOIEHI2oyXyscRbIwaXl2zGI2rF+3d/JJMTjNihVrN1RyOUa7ojjDZHvawVsGuYF1ov5kQ+Ccvwqek6yAq37EdHG4GWISe5Faq3EzfTRxtEh83jNsNo/Vn5bgnO0PCqB6Cm0adKkWhRVC1Zk5p86lubAZXDrICtTpMD3IyJzpObstdC/aGWWRIzlimzQaZ+Cw2WRcdc3JYpyCtVPrrxysD1GT5Z26bZpoPtuDxXp5dovf841zCVPUYGrpA7AJONhtktLuEzqEDLKyXDzwbvFfljrnerIefqNVxF789RtO4G6xN9AJmJDabxHadtFGZJDd0ETeDTZCq5hG3UplMkOAGKbMrcfrQqw5wvEOzJ+W6sV4/j6XXGLdNWWEajDBUfpZVmNoTSFIn96onYBNY5Lq3CdukzMkHp3Fpl9A7NHZxA07tyPu3VuaJ3JJTfbWZUGUFZj6luIuH93HdF+rit0bpDi8/Sw7sMhPKBqm1QVIWmjeRY+9PINmrN4xCejjLDNDoZRNNY8cAhQ43QSqlBVQqYgpfdPODL4pdYnxKeSefGGb6794wllUpuZV0LzWBFOtlbo28mSA1pUZmJwCvstMu6Iwy/Epl1DYYCnLX/mCDhBpmehXq6GqNUOifnLDypoZE6klxvdRXq2yZC9eTvMD4FMER1AAV0ctbvAwywMQ6+70KddzPQl+JXp/y046BSGgpUZ3MLzboxG3CAiQL4LmzqwwJM9ikl+f3ckszoWmQCrQmW6Dvj1NMv9QmfHP5EJ1U2tnq8a6eZHk3uDcidyReqrEAjdK+sT+lqbb248MslrANcTSPCQJSO0CBfqRDvNDYNtw7C88azyjkY2RUrR0/DLErZzv7U4BNb3IAeBnLAuD5DgYAAY3rR1fGqUCUCIbo7XwX+ye9bOroCQu32PlwAsazfds+Ra+fQVVqRfdNQG2Y/Yx+nQLQmnonb9goFSkdgKRg/XXh4Vmq/7CFEMYtbAE8dL8/8JBYA7rfH0GkUENs7fGpm6wTqBtr/RS16bcMdrr6GVqTO4Y4PprDxJHh9R+fw4QBKf5wUXOohZAExwX0M3tNozQAAIejVw1mUeXkVKkdNYNhYJzD+9cqzoLUVkrUg2mc7dWYnGOQI/z2v8XNDOYweWToil3BMLX/Pm/XLhj08WRWiQaprZLbEpgFmb2h/JnCvFtPMvi5a1g/SowweQDxM7keDg8bvtSYCXniAgePetHN7TSNrwsSmZaE5LsF+ObCcQfsvjb/TbaG8luC2IT9V2UOPsV0iI5KfbTUMRqlm9yNiSMC6pRo9/YIpvT6FDhaV/+VXeSWtUHc6RGsedTdjcO9HgH738TuUmprTRIcfp5/tXlMHLtMAwS0bhbtuv8VQJDMR6hYrWK657l880v2hipIR20D/VbxJrXFeNQVLamrMo0BVMvwx/zLYk3HDNrede5wvEx3FgOlTV95lK0XYv8MOJx/jJzGpkFJEcDhkoN7jxy1sk3sqvSqSGtYQ7T+ejlNaQtI88F6OAqJbTznhyTObQGRC/gMNgyKT6lNe5jaKTHOuNn2JA6VTt66IgKqlWj2DjNl79rkOoyQsy56C3Cu9UfCu4GhxXLFyyy27uMm3fzSSITahxRmeV6s6WtoujC7DV66HKG289yMSrtihGxxZvMO6TWW3Gp/VIlx67f/p2mY0tAXhB2io3mML8zt4O2KNSMtxQleG4PUljxrHCtf6CC4xLj92x+Zax1MASa1OwfAyrsjFFKtkx7mKlckjo4BCoLX1+FTCnvZ/QrdnJ03rrV5lKe2eTAK9TiCFNg2j1GhWOnjiZQOu350NMDR6Q0BAbHICLYy/Rv8tGMg4uV6wb0LgAXYMX635Nnnw4EEM2iW6tQhemeEuWSVWPTTBzokKtUHS6W6apRGtok2wlbzcaTVz3XSghy1ySX7oEl86JcSgAJtdwZnE3YhjkyQ/p1AH2PQNiytAIieK6dwUPNosLRUPdHbejGLDJ0HwM1aJgIhd8wBvED96K5RBu1RlysnOqOMWexcS0suOgaaBhmTEuhMAT6jtrUbpUNYOUGrcNQgk3yqzSSO6OGbS0sNo+UkUCYtgFT/4TGqwstfX5Aukz2fztiENUG5gdoW/1iog1qbB4OlpTItOodBC6z///HZPpdZAwiIIBZ8GhIHTrxd1EJbQ2lN4isLAZnri0PXwW6qVEcAUfLQHKaKXjlyjj4eB9Cr6T0r7JcdELuZBSDL9BcBABJnM0HCLIRqCkAnCfa6yClHQWtziaunQ2RRagOoHW9PUJbCeD6OwMkLAD5FN9qQ18/G/wjtKpT4mb6O5AWubwRGSgOxSp8aO2dfunICG+BcDojaWhiVBESAUVjd0pPHLW++mgV02AXg4GQNI6NRhnUV8KyplXJsCoBNRGi2DxliX6fXpo6IXa9DQPXyrwGU5lIHdatUzKNsvRB4t0QQ0L2TuCI4KQEAayPtY+NjVF/qkShtQK/um+9BuoT80lLjSDGJLxJnmcTpQxOILsheBUhtd4TSVWtnweHeJN69u2w7ubUnV2uDpaWWYdIImUHr56+jl6+5b+O3ZSe+XckL8TMNZCV6v22Aej1hliF2F4O0wTg1+uKlUl09RiE2jdzyX69GqPgw08nwA2qTj57B5voiUV4EEqcOTuN8VmXDkRHWiJsiiF3p8ppHxRUAcdPNNK7ZMBYsLdXJurcWunYOALGr5djIKaCol+qhURot/T0zGH/xUqkuG2B1u4U7fnFwrXI7A6BSNhhhLD3r9Z2lzWwdbxyhxmjO0lKVIjXjMZVF4GccPdTOCGxhYXi+bMXxzXdKsiJsBZ7GllIvjUFaX0P3C02+y1Vo8sLDwA0VaQ2v0ICYCVCtYpbibybxgTgNgAJddxpwnPh3qwF6v1Uk2cTMlpNAXS/1XC5XoUknbwIAjKL9UI1SntzhAHY+GKGSDbIxqcOFrnZP2sfpNEgnfuu4kRj+1ubBMRwwKsg0tt02JLtcLoXV5meF3XA3bizIZVEe6WeFykTClofzvUja9EXnAiO+DsJaJL7L5So0uQHxjW2jV3ELgFZqxh6NeexUPQUk9kTJg3OY2g69Gn+70rbmgNit77nUcM5m3UrzmUobS+qI8bMHzKDrRNAaJ3X2dchSmF7HMWrH8YXJGct4C3SBgCq9zIGG7qVOmSnBRosQPQJ6ZXcJjNiPLAkAgJMZ/H/C4vqrWUCLXRDsuW0u0z34FBAnza4DhbrOkwWv7ZA6Ya101RliN+gQdHr5VwBKU7v1SjXryPblUdey3aUObrWIJW5+db4H3iiRbJOSl2Of88b4uWsAAV2ke4ejdLdTUKyfmDyM1ErMY5ISo+9yuXKcsnd1ch3dQp2wU9yWtm8bylO8Hsn3AidTWwCsWrVFboNhSn+E4dvmwdCY+Fy0hpNrh40g9g/xU/BcXyjKAyDNu28aF/iWbjkywgqxK2Kvy20aE20SgtUUUNbJPZfLVWjSiNuA3fkZUSLfNISZwSRqddwm6OpJgcua2EWRtWFeq21HwG8d0sFQy/BigKOyizMCmk/A5ABHc7lcBeYgJDrnp52F6uS053nBLAUZP9Mo7o1TTGF2Sy0fjtK1p8NTe1UAKC3Do84Tu3K9ZKChG8I0+odZgQkoTaNloHPLhG15D6fbKr68QmobNVLSQcXEcIxqijKbOJdXVeClCh0EFVon7l0e1KZCbfIAQOzqBYb+FN6NWaZJHeBZ0+Rm4lsT52egV91RSmcKH4ZFZwTU6GX1ZrFZ2syOI8+GNkTr1Sg5cgeA0pRpDe5wCxXRv/IR0beQ3cSnFAzSuwMcxS/Ju3fFf0kJGMzyzvuZwCQ8xNrQGvFmQWfjKEtp8SC1VY86gKNXah/i7M+JBUaG872Rf3ryXIl+ZBqXWFUrT4LUlot0gynAonaZc/RzefxE/HR3DpNGhi4ziyuzGCh+8bxdQQ972D60pLYBTkBrgjRvqUNscWp6m+nefVY146SOvNjfriBmrjIT0pjlOejVspdNbhpZ/7uFaKFSkt8kjuFp646wEyTRWQw8wsj7Ofl9aKit+xFl1kPDQws+i1o9fzhhMjHjiZ8moKZKtzLMYhjliaNHbB3otYon5A73QFI7Nklw+RuCE5xsqqFQ6+XsnQNNImKAOwOpHTdKVqzGkK5aQ++0K6hQUAbY8GhyBHQhSlCzGCgzcNmpL6HXxLfLsSP3HbG61MJdtWZC6gBQWgqpI8EOfHPlONK+o6jVTfAy/Zm+Onl2k9gF8KirpDY43O7Q2XHPu3WstTTh6RhK49AAh1Ers+rx4SBb9S1OcS6vCgClJdNrAgGV8y236xDNLxlOYyG584YbCu6waZgco8mEHWIXl+rqH+9Pai/VcsLe21WPD+9ZkN3C33hVeH6yNoJ1vmuyP2gNhdISAOBEf+3e5fmpREPG5S5RaejpYfsasZdXRcJL2CG1/UZJfxZbqUyTPdEyMOgRLGgtAPeO7FkXsGDd7486np3X2r1pCZ/2mlpSe/0Ew8sUP9zDt45ZqczbB5e/k+3stw9ahaZwlIJ39QPCdqN+ZDCBhCqjVz8Gm8AsI7iFMmXvqCqTWyuDDRDqgJsphun4INssMjpVirx1GBC2y3Jz1wSmVSrzqzYNF8lzDADAu+SPUggTMWkcC7v48Ay22SRhqS0GP6PSje6YXmeQ7u1oyY4oveHIbdsyOYCbwKJe6iotYZOkLrDsLNi8fPxmVyInip7Hp3DYBDluGA+6+IgZTGOXaU4G1kNIq0gTZBirh4lewM2EpnHMdNVJ4VL97GEcFWkHJmJcqrfzHHPP+gwAtYkaCa1WkVJkTPrYrTlMIfFN8f4amllk9P7UTKjL9TSaRJQZDIsNXpmm0iJYm4iltAXvcvZXXUKJVRatDhe1gBtBqEXsFJiD+rGm1EAHRmoj2DSMOypDMUZuTeKTuKUNpPjIGWxRoTUVVoVdWLeiNuwuLqGh2cfcKMINcBQWnfJS+UK08UAosURaUILVZSmNAwtoczcE4LoseDTXzXKzgYZMbB50P7Wbh85gkZ9G/DQ2jcuqlI7KYLptB/aoTSZhGp8CqhqFWabJ9RB2aZQ274jUcWrGu0evk+tKi79f1IqUZ6WOqjK6NXLYQGzpEOBTZUltpW50oKV4Xyxzb7p3eCv/tVxPxFqH9SJj2s/CB9kSvcE7FT2PdQrDIlPQ0U99Ezc/kzgwE5itlzkF5qhJUksnaQcnqh3rDzNFUpfDT6oVfR0SqNVWkTHq6M8jQlu7R59rM+WbLlI93x/zLsf9LLKXzwnS1SgV6xKax6xSFJvEC8IOMcVPdgpd1wCT7OUvaS1arRjpkLhMZ9dJITMhl/ho5FtGZy3XWjWyUgej9sBPVxpKu59rHLN6omgeET67SNczQEmlyiwyhi1DefwiY+NR8zeI29VKo1JRmUAoM0CzCkkPhxjgWEUmt1yd9fA04jbRHuKnqWmcJ8hNgJAQqiUhrSL3Y0+zYWy+cANHGN+ZvLfNGZ8Tha0iCivnXRkDcbNpmdbyqY7p1STfmpZrApXBjlidw289LjTGy/l21bsqgNLU03xZmSYs0bsRqxxAq2vZ7mxZ4lmmBH2FVSK3QfhiUmiW7wUAOx8qLMny4WOWuBUCqoev5CW6uEzr57hkn8ocdqFXLJkjLdOGpVo/cVawnacTrwd3DdArbsKsugJaXZc5sogQWPmbjMkqeUZaQehqojLEy3Kbzs3vIGANk9uWXrXJQjT/XF4Qr9Vp09USZBElwgJTvKwy2CExAQgNJUVG3y/BIGkqlrnXd2uRKBEX66MybVBgNjgbLAEVhYm0VKt7tESw8uFenAIArW5JXPmy3KbQazyA2xTHyxJdWKJ31kXYlEAu8Uh4/85+pkQXHZA8LZA6HM7xGSpDdIDMvfxy3KYoUZToXN+SiDxrkTw9BwKjsUofLxeYrYD4HJGLRak2KtY7wbFlhjdPndreSW6pycFqudBk+G7MRQm3wGyyCxw8a4bElR5FZbSC1mh4lxyFOfBPAeuoa//6f2T6WpspeQZYoKxodTXXlmV7GUqLBagNU+bIZe7JLnE8/N8SvRs/zytNWViYBjImyzMW6y12cT3bnaQHrgPxM1GOa/Nh3Dbl0FC224iQeEQ3FCAgEqmMqmcdAATUT/PX4RGJVTALjemyNQnzErWpZnqK5TyHIkx5Kn0YkLgFesVXmNMz5jpF9w64TrlNeC5wM0GRMf4AuU31qdCgNlvlaoPaEUFAYZXee1ob33wst8ZnLDIawvQOELEUv8xyrlNlF2gCKvrFUYVV8a6OAcA3X0auTAAQUDUlkJZqwwM+idoSEBSlJJPKNq/0jDS28TZYiPERGAvuhVESgJBQUabx/ZIT73Iqt6TLKoMVFmYhjsdKc7ystGi+BQaktpEczM5YqvWiVrgV0Opahjct1wQ5Tjk5EH6te1eMmk8LzcvnAsDJRkpzsqwyOlHL85XLilwqPvoAqVv2qnI2J4ibyz+6VBekToEVUJtRrj09Y7HBiV2c7/SoafmWLCzM2ZBbZloAkDo8AH4qKDAly4UmKzC+Q0BF77J2tsB1emGiuQTlmS5BCsnJEfk94Kjjsw7qD68xAGtpjUhjr+hkPERznjIgpZ3tACjN1XgTQWoSooZ4PwJiBtuEqCLJcRGUl0HDiyw1WnnCfBrOE+pkqFIlOfLyP3pBHMPd5n0jObpIDZR3uk70ssTwW5vnbnBNeBiX1JnELF63kziddH/wX83Qx/qUhJB8aoH9Lc1BOlBqjDi+U/5ZQGrYRx7Z+Rtr6GixXEkL2162J56btHbHdYekJFQJ8+sSNsHAFbJcSYywWZJIC4Q4kljzz5XEaO+qZfxWvi+PWVr64oYsVbwrg4XCZWpJEbQNt7WjvFJBWr7ZDzvFBXlg/WUyjg4ipY//ppOY7p2kRJlIvpXyzojjW9B2ISXaumssKT8mHVy0kqLrxGBKhciG7V43kuLBAgQ5HF50xxGiVkqIflZoQh3gz663zckgHa6b/4uKrpJSQhzyuilEhUkVCTkagNz2XZNA9wh0DJahZvm0UsE9qyUVIG4lZKnQeBOONrwLMEIbNvNSSsYEWHklwQ7HM8rILh2P2WipgMcaOqlQGWKe+0qE9i9bgRZK+btK9lLxOcLEJsiRFoad5jklQuhinYtSwT6aJHFTNSQRKkd1CypcXiGbLAWHQau2oWDj9SIaSIE278nYtpMKkzHcQhJGKI7oSYXMHq2liSTs5TqioK+Eo3qWrM5iVy5zJN/iSAWLxQgT+5bBSCj2dX/haoJNhjqrzo96b9HLWe1GqLDxlIAh1cxL1cf6bEKFjWNk797uTeOQWsy/s9n3yqu1ooJm0YGjzFor5n8ZOjxvRxsWVMD4nCVMthb135XLdXTenYwKnoBhpnlJcQ8p186Ou2iuQ0+Fz6HeimpryiLVZKPs5LSN6Fs3ooLnRoae4V3Hh8rlxMl5zr2iOQ8LKnDydJkcQpYqsWq0BUv2vjGX1VF1xPRkXSWGbGLdB+q3WLEqVD3RxzY+0w05x1/nuaa8ZXFF4nGL7bnsNj5qel6OSUxPqobbVhPZQKrY3xIdcm6t6mmpjqkwwKxW+MDyImft/KgTWRbucW+scJal8uup2p70JJbpXmKI+bWflbnHvWl7kaW7g/FFtj2hlZuOTmFh9LGM90or19p4+Mlt6Jl1uMlt1tHfiF1XMrOQwuG0TVT3sfE6e54k/Q7VBoyxT9/wgVJZShgTqxiO45S1/2uF2YrUnqamlYlUToM3Mo7tmm5U7z7cJA8fXNOV/2QNq6aasP/ykTYnvZFxrNcIE7xaO7dNthwpQ1RR400YKBu8G9TLkW3Lastm2ShAsiTWyLoXdObeN6Z2bpqpc85sAABADk4i5+belWvuMFiITVd/Hqmhs1w892V2ctqlWNLJLxBAaldnp9tPUWLbWltZ6qSMR/7DRPZufa3SHVvOYy9fewMA2bxBwanDZuv0RZYwc6wuTRzzdJkazk3Wgu0dNlMvXMdRmjxdr1vTToQHXw1GFlPnG36CB0gKqwqLeNkSNdfnaO+qGWCBWUkW3ar32sYDcQJJgpPoBpJF8K9x9VKCBtJ45mvAGM2s2gZz+ynaeGjyZegm3m8+1WJrbt1kowQAQM7R98pcVnLkn39HVwAAyqRYbKqFe9gbive/OD/YWZMtkilkGWvByJLLp9ILYNIuMMT81cGVaKrBD/wZP9Dna7DO1npa9LtyTtQnNZnPrFnLqcwj9bLttH7erhL9B8+7fvIazb2rDCrTYIlRRjZLKVK/aHKV5j9vr1ae6kw7lug63i+8Rtu35PHWKgxmmq6iB1tVWmqw+lUr5igHwLx08l62x7NUyW6Wfx4LnUUlkyMvXqXhg2VqoVIaj3Pbgrdcy0JKmF3rTOYAHAqGy5Aed6dNypqZ+Jgy5vv7tVx08VoDRVnezM6pAXenHWY5KU/jWZ6ed84DfsHf/A/YG/o1fYO/ocZ5kz+lb/Mba/tXYrTh21RD1R1ifmnnhvgBkBtUXqN8LauJe6/YxtvNUa9P0CXdtijkmWvPEjVyagH4HXOQyFJKapaeY9uOBbMFAgisFyaLe9wd5i+b3Sy/ZYDOw8fkGIuPZz7nLd7uTbu1vQy451yj9oYSsuzc7gwAZO+8Z74gkkpJwLiW8ywLN1kvZQC+xTeSDKaznNEWkF3niuBfUvmQLa5263F3bOYFaQEUnj2/js+kMeL4fYAv+Zv4GT0nS879Lv+iLg973T4TaoFGLopmyWe8JDIUeKbck5guHUnXkagu8d0ez5AawO3NqpcSbuEDq5cMyN75NlmZZGvFY4KBe7cH87IF0GgLZf1iOomYwc983QDk0MWqOJ+us9tcbQ0tgFDFaoSJPUAarH3J5kBqr4p78FoKFN3ZAcAum5BfeUP9rJ5v9VvsnBx5Y79g4bLiaTWPZ8VAAE47bMxjbFnkrlgQgOvRskvHtVW3lAFtS4Wqz7WJT9V0w2Gm1x1tAExbwUQKZOlhf/QGtMmnL8VvoaM3+2RzaQHvhVNJwabsf83hDlhfbX0LniPf7WTvNRDw7vSkH898VicsltJSvJVvs3Ny5mbbSIs4BqlpC84FKmshO1VYiudyxsLquC08YxlytsFDi6U08HwuPxnyTsvEMj08V0CWH+OD2wOGnUce3XSit3SYHAHkJhpw+eyUf2IZ7+dykiG3UMFRPEL0772b23OZA8HIooOLdmkPyj+xDfe11pOB666lI9IuLC/6svCcBHnTP2ZdJ0+dRqn04A6A4XFrCTCa7Kqs4Qq4bu8oBVJlskXqM31jTyGWW3VaecJaYJUh5leRr/51J8sJyPlyU2ESw3EeXQtMW0TsDQvJbIEc2ybSSIEG6ti2q8PzLhBo7l05H4m582XixVPnfaX2Bn9Nmd7wr9iF3Rxc5A3+Be42zm+v9onnu0+/h/PZbzzJk7yJn3Rv46uhrEb9tY5POwC+g4aZQEtxx6FmVy8AeSfpvcUvhkN4AWj7lkT2bkJtpC/oDbj2uUZ9xCzgdeyBI0WaX9yEqyZM32KlAuyL6UT9O9q+a2Ugg6edcANqvabqJRCcREUsuI39yUoPPHkpEyde3/foG/gVNfLmv8+aavBhp+5hKjxChofoaaXkSrrut3GWD+MsH1zJhX7MztY+0O3GeyJ7v5aEuDXHF2vznsgI2i7av2zKCjZ8dJ4L20CeaTqxG3GcHxZoogErmAjW5uFRdSegXJfJ3k3EVdY+12dzYK11BN1gr5oNMCzvJl5lFwFsMuQXdEDN5wT4Hfd+ucyfKxpf/Yf01p+HfPzem/4Yvp7vsdf/c3p5b+2brI+Nc1yNPeRfXiD58ktZX3yl9KePjJ/qaohCsei3WROvZile7SXwpr5Drxsg/KpBIi+P5HtH/O5BY9aiVTKnhqGb+HAMQWtgPe6ODsDWo785dKJWxwnwDR9YLQSt2RwTkHcoJVYWfa3OWuD2o3gEFTZVKgOo6CFWsY334wGBpxV6/bhqAcB8Ty6mo2bBnS8fmL3vlwd3fPX8vsnO79vsDX+fdXt4jCeGnfzuhcG/fpE1/m98revQoQmCJpe9dXsDRV5ZokSJQcOvGt/8R02xTYvlCpDvVuDh45MOQL1VxWw1W2Da4Sc5FTb127ojqYHNRboA1R9XC3ku4fcV108GaE8i1t92yOsGaLCJHRU6he4/NQyH07Eb+WUs2/v4gQem3v/MhRd2DnNjcAnd2NSLRX3wGOXpn9js6/fG1zVbo27e/yvUT5YwTlT3NycDj2YolAI403v3gsTaDTu1+QKZy4rXLL5AjqV1VOD4rG4LeXsPURphfFsF8rnqEq1p849jvWYZZpobpXbNxcn2yppsD3gvqxflRsHswLTDTG86KnzyT6WF18rsur+8JNv9iwMPlOz5Bf3in8/tEjt+Mv817xe+t68dj2d/WPPbo1rytFL5AsOons+9E43g0+lJp4Vf7U1iSJq1ILCBiWgrgY8HhMnVudQxiJ/LHYZBwkxPaAKkjqgYEWTrIg+l6rGwqrH7k3MAZyxE1GOlWpv3jXNqAIAhZBln3YSoidaxrfsGcKoqRsctA+1AUUrVkvqPB7xb9qNqdHx8Srr7FwceeGD63U9d/MKGQlPW/fbw5djbV/rVF43EZbXiFYaRxj6ThLg0YtZe0B0oop49mCNM8EN8AKEV6x81uW7ASz0VJdOOz1rA73BEEgJlCMlslEn2TuVG74plC2wUA2maqUpmIAfJ3mTH5f04HtW/Uy6SBazZMQHrpcW3F3H64CQC7vak6lo8WAOZ6rLp+OS0zYHrPv91qdBt+PNBj+d+5CD/288YIFA98RLDyKOf1QQJtaAYENjv8kxZssjUUxI77fLCTruAK3C3PmJk2flRJ2PaU6ir/rg+4LsayXuT80+Vg9NpR7w/sGT1LjptcsEBYLoPKh9WMTVyDj86UPqU1QmKczRbcMWLZIDQXJUhn9xSbKo4QV5DbW9hkm5Ur/CD+/IWLHq/Xvt8m4y7nqr49+LQ8d2sl79lz+v57zf/fe8o7YZa9RxDFM+XNeHCajmhXWhuVetO1G4LzRPbYuezbiD4PYLZbVDmv4qQRzEDVllPfdWGnYAb2IrgvVPbP8waY+IxVD0RAJROipXwsrk/mDXFxOMgVQNNXw7e0xOdOoGW5OQFSE4CzG6dQBjK68WlUpepHsj8KlR92bbRFoJzbhaaP9mcvU/YHCh/6C3TiTD/m8/QnvmRDeWZn0R98JjpLN4y9PtyzRMMMRzfr65+G7aWJkBJT6pqiXY6GX1cYkduvftVhKsEjw3cgJn41CwI289A/Fd1pvfLEZKJLXdT9RK2s3NvVbTChvuF2VCySY3j0rPoXPXv0jyLZwYWciRZkDtBJXyfp1w/uxZOY9tOcbnwMvBej7JJDMA6a6OUgRLhmAyYiqWz9uSWW/zAO3Y+v/6Vv5lONqofP8555RvkZ366r/fz38v84qvjJ6l+wpr9e7DQaybq+xdVO32/y9QW9ktQFnM2NwyQS7uLLA4Cx7FdTrDta23Wi+5ROvmAZBuSd9fv9KTLyJEFHQkG9WwG2OficuqLb46JVN6R2DFV7UAw/dAaJ5EWbO+O0itRAueTiTTeLPMTdWirDCzkIyaFwuRqoOtEz3o/f3pLAMQ0iXIIGHU1sv+R0vxzCddBIouqLReb1vf/b+fAnD2P17/8t4mD5sQWvvng4bb/7hg73tMdizb9eb6U+2K55nE7Q81+KIFu1YAN72ZeKtj2vDPq2czR7LAkKA/PtRwFgLy2RdAPFKUGNFUrWf/Uaw+nmGG5sBE6OTidGuca+pEcjd1VQHVFXGEf3SmI1wSZtY22oDNbzAHDZyD4qJQROOR1uyiHcZGWLQwbUqZlGqHTg8NE4zxQY68IhvJ2gp3kjjzkHKckCR9YXGFfR0w/s2DQdgGvY1MWGe3XVgJpP9DacDLRVKKYDC+WOsQk/6v7+OnrmB+y3b8suv/to3R8cmbTl5eqPzgqe+430n9eLFM+bmfQ8KvHGvqJndrF75YLAy0VcHYqlCSrP7WrmRUE1K0k0EVqqMSyqdWL4Fw8yzvldu3jI1VTlWo5j2F7t8SrmOOlDpchI45vudnS6UmHdm/aQJvtCMp4Ql+4Dh5k1dmNgzQWNAidHABmGvcz+YDkbpTAYYKTiPTpZ4kmpQ2TAY8noqYcTz/YbqtnM5vGcAjWN7FC1K1bearhzlIdTALksL/94jkPdEj2nl/G3fFC9J0vJb36QvHwE/bfw059LJF2p2o3nzfMh5xbqWDGb8k3VHttLYaC1vZD4024mqpPcmfKzTdGxyGZ0CjXcPGK8ssfRUMXR8WBAmbENbyWCth8bfYizoHzLReMhObz67i3Mc8H/KjFRWNU7z4zGsxKtmPTAHivv2Ck+bXvVerNYX2yeeMUfjBfRzT0nwGY05SymZrhwRqcgegJebyRkmVRHF9YBv/608/vIGvPL2PveDHm7hfze58qVz1uJ5LvHRP1/ZOqnV1HZy2Q143E+uXbbIMr/qsBfK2sqEwZHB1JQq3sYW8EXtSDKQEGTTCxsi+Y33Q8rNybUeIDZQxVb5yJlf3DdCTF0ExWlVGuCHkN8bAz67g8nOndGkJUy3kJ+giEy9QwDBJhHFrioq55V9UvD8sGmjaL3zLxszFeplbeOo8lpQHpXNkVmMT0kG1ZdJnsZHR60luIRfaW8xjmdSirqXBhLScQPaUksCnLGnXCfxVlj/zKQeaex2PueinlvedLpU/YvSME3jKu9Td2GtAqFqJWImi7GGV0pyToFJ3ewJVYF4C7eEk1FBwbCY3mPGxYTnYvuqodEKZKa1zwuykjLgPLtvL2YN635GimPcuhZCnyxqTDzkw50bh6mQEFcnFPyJsG6UCsGMDqd8fByudkee9L42JF09b81sBwUxsl8lzIUZa5gC3qxap0dsKVhg3srcRiiPlFi5YKeOLeSxhaZFkgcIBFCrTx0NRVNRmWpsP6k8lu/YWd9H1Pxj36opLy1CtYlWueiBB463jmP2nAPmVdPytUi+SVqHAXJimO7c9feik0lhmhPZ+O+Y6qfjWlG8F1YXu3U3sQXY10R23eN0AFKih65MfD43H3it+qqToCqrK8Ncfn4c6Akh0HKRrkMg1IbkI2zucop9qBqbrJMNPrY7eaw6WbrqIzeBXIuPouzmuTSawBJwfS6cShUtu3BHgmKgxWe8erkhzLuzXM74KyZPpk0P7hceVdL9uk7X8q69dnbc1UKp/rGPhnHAPWiGaxbDAMFlp0Alor1GEr7vkpGpqmHOqZMN/nyYPAVGmWiWIhhSntDsreYH7TGmk3bzTRgIeh5JljDk5z7LrrrutUxuNx1wC6SvRA1/FetYProJJ1/u9aIWcORKfjYU2DfnNJBOnATXVEPLb3q0lZMnehtatUsSrkloSQH9xmXMtJyRIhsARrF2j9sTYTh8je3Q9HKisUtsN/BCfT9EDHp60dZcn8hUr/v7zx7X+VPfKh8s6X8vY9nf3MsyrO02rVs9WKl+ql77cN/WUCoef6cqoJVtMi5eJUQEA90VUBMDDzBYowC9YGFyh7o/I2uWBkxRgL6TFV7Z29s6hI70l09w8zJSid/BBN5LGQjE5PugAeTjo3Zc+Jg3Sgn5NRnAHu7vkN7VGwrKqbVzjzkzWIpy18CxFOVJfcYGVKkoWCkbAKae33BCiTWxyqAR1cdpUEw+o+ZV3ANopnB87AUeXZcrGZOhno/pWON3js1ij15oMYYGEKcOYx1Q5y+NL9/gCsTkkQigW9ZCCZI/NNyjwYnSrKI/76A8N0nnn2DTNF2TuV9y46VBPF75YF4bos0brc5Nhl2RNz8NIztwV72hlTZDOODYEtHg/YVhQ2AfISz/yrLEH2jPSuT0cJMyWQThzmghw+uFD++qKtMp7eMSk2bmuhzCgjG9XglLpulDmZZljXBifYijLyfpplY3+FmQPR2WCylVYjjeE+gHok1dZcG2g5mxYi+lc9Zc2cBOhnABYWA13POxPwTKQlmsN8OqK1QFbSqyndE+jwvBWFO9odQTrwFAJoV52oNWfzhktnZFFsAh4b2gFjTJOtHKJWIkcVAj/KEuhDcmwveOeizKw6rGL+x2t/RKVJJu5a8AaVrbGR5kI10qbAIpTbuNZrJ+yywZYsKaB1Rb2GvI04vsu4gQ25fJEBJLsX0QnCJBrHbX24jjjOKWH6Xabu65KVM0d9UtGcQkaOOIZHDGLYDxnTBgigrtEsnqW/MVyaTBkE//LXHVktNNgmMkq6EehiaAn0I3HcADgHZclT7IvKlO4FLwlQqIbG7nbJTnfnudyTmekoS6J4hM1MyRG6iGvyNb75DlFFcBpz6OBwUJg+BaWRZNNf06zdQqVEaeIjk9xN0HbxvYmq01PvbEK8ci4NvyieXQwWSI18VACsMHGoEfhOD9ie0Aav5KPBtgdumRJozimBBUhoL9sjsL1IxDI+yRG4GoE5vU9IKbs5F0+BzNl5MpkLgXU4NM1EEyOF0miq9g01TdUgHYhwaWJJvPVovj5Jg/q85ebQE+8zWwTuJxZDr9ZLhlyBAL/0jk9+X7hn1+AqVQHgCkn0O58EdoZmPmAmC3FI1fRLiRxPR3ICk365OdFU4TIEO2/Dj91mQO8bI4eLH1y2H+VRjuuvaSL6F2BhSqp6cqeyBCv49O6rka/7zwvcsk7zWe4ImzyagpYERhsWmit7SmAJqhk3oUvZI0d9cZjXHXMl0Elh0Okqa7tODBvyQjdxx1RcV59+Qqzexv5hpmiavYDZKXFOFNjb5sw9D1SxfiUeVdN0MpLZab78G6BBVZ68V/p6MBrz+BrzjFEEXAdwFM2V6gwwr68pCm2NgscWhwsHSlCBVK/l61CNn9xBOhDJuRzrFw0pW/uGmcaZEpiNnNma5lk4dZnsHU5EyYUPMFtk1Gu+SUxPCjTzUi3BS53/LmzTEcpki8JXqLlu1hn1jqwptpgJOacThz2BKcmtttdpT9vvMjU+sFStMqGL+LSnPe0Mj20w3A0vVcphahHIy2+6ieTjrpe6BUf1qaHrlhvxWVwYsKaH5tuqxQqG19p8aF2tsNAg8R1ydpBZJZP3OK65wCr/jn6qGC8CXKvmOtzMCF3EsY2PsGjV6Sa8cR083E4O5ygewSEBBjGR9hN+wkM/igZKB/S5NpELl64BIDOl1CRshsgAAMjleSllQIgq4vLV2uX8cGx4do1TEpiPB8eF3Hvane6X/Wg2pXPmpjycMBBepprPyheZzfiof6anCjRGZJ0+XfxP7S2vuYad3oKTCMnj6qWwlt+jxYJPx5Wx8OnwvEWZu+AwBtIPQqdGD1QPL1saqLfNETgxuTo97UxzzLEZYwlfs/gcxnlcnjwMMOg0vk3EseU8BnLzKtbOQTqw49PWjOXfRXxtrqY6H9EdZzn4iaD75dPZ4AZ8+IivWkZjhGqHiHAO4JY1V0TfGrRdoL2rppKwhncOOVGPzgQsLHaAYeiZlYDSneBqoLMCaXhcXV2nU53mdMb5UzzRaSG7abzYhntqIBXPY0UZwmbJSGM74yjxequet0f7ep9eR/lYyhxBOvCkmq+sFmGyRM+HUe+DMdbIHlHlrd3Wwxoer3z58pcMGsPYC+UNfpBYyBizim04BzbXXJvKSOZIis7YdS5XzvkM4P9WMughwZGx0K0O+TjcXqNpJu5fsjVQJycdkIf0JkThbUnIi4v9C6XHqOZqn2+T/I5jDR097Y4tFbB8br6H1I7uOMTzpRIfR+opjBVOrqpqYI0hs5qmsiGBPn+QTUy5KJYB62BsFBEi+ldgdc1VVIupfEjJ1hykcWMB9JGTsFpaMISFxyUjaLtIw+3zv3ZiADRQVmAdctV1rBFEachmDIPJdpN03DidcKYFNtKch/i1/tgA8/GapZ7hmQotncwPALS7VKiUZ8FX0EnC1ZP03rwZ5efDWhOTrNmag6Zp2lXulcbIChWV1bRmpqnqEGc24Hyaa35XbOBGfEFR0SoAu0ecOc68JCwc88J8Pm4XHwQmvYmOBuphbwQGDy7kilZMz5bcAtDZwF0Ey8+8QAT/Qi6uXs6fKRgJtdnSWJUt1vlRt8gcZ65/iq4SvX1q3zmq8Hm5TeL4sfohyxWsl+JtzPwcxliEJjroWYyxg2ee2hsqapxLtX66OLMDGtwJqKE3biC/sFfrs7/t3mkZwGLDdm9a+O1GcnWPoquB/hRQjFybD43Mfk63ArA0wJtqvvRA/4uMlGnVHQMBwJBpLytKPep0c9hfFQDIt79XKeJfsKc49iuXWhNONXkbNz89HA5HINdBreFwA/HLRRWGzDHhcNkJLEFxFgLOocFHH/WD9UZC71cO2GTAI39raYIQVbQHiyiqcXale9G7y+B0fPEXf/fDK6YGKg9cHLloLrHOsmzZSgDbBG0XKM2H5rfnXdAcrlDNnJZ0PrZS7PJfLUTdnrclVjnU250/xWS324/nsNjtSyRlt6KF5Kfs9uw1z8oSp6PzFqituZZ4EPgV0pQ2EbNsqFeWxU/YN8z8+xCdzzku0o5znImQSjVQEeDdaMxNThGkA9FqrhaBiP4F6CLVkdAtNYOTDBbB2jBXQp3cHKzFaPeaNPQRbz+KSlPB9cz8yTPf57pvVo6n7nOVeu1sxkLqky7XcUfWy0Rg7uevpbnWNjoUjxVRH6B5RBwZgPNwpZwgSSya7E7w8mThMIBkdy24mnssnoZAPjtNsZoWO4tA7nJYkeCZEn2+9g3IYM/si68C9szcVbKvoiOYmtu7aqEtTzWfXUWgn+VZgAsFmqbFcZylabztzIbGvADilApRRQjWLo7MbutFaPYcMnkKNZ/AzFuY5SQ2cxbZchHaQZbtqYHDk0j9VAJj0CwdpANxA/NQUSSq62jsFSGFGTFTNxO2VBfAX5JxNBGwWhLWWbi3DbOWAzjcwILgTOn3x/2xkTV2F8Wxq9PIaPe6FQJjjI8gD+8hSNY1x5pzs5k/D40fxOveX819/GDSHXdE7b476ta74w7cmf3Q4YrXdvf/Rs2cQ1Z3hHR23AEzkOhsCAm8CM2JgaziOeDGtEsT63t1zlSSLeuyc9wAS3FzLAHtniJguQiCkygP5793kAmemJ/kDPUaNOSuWsm4/Xg9txisJMPPUTPo+l6lMhbyULXlAtT9Yzfn0YMh19/rd8UD4ssfsIv4prvELw0Sv8Abf8GnTiM7gPABBuxoQXL1+hKIbqzv8LwDthWJgA4vOqAosa6Sne+DsGV6VXH1d6lS2U/sGrqIfbiZZUOD3CKgmx0oxuUoNhAmrT/WnLtNpweSUTHwcEKQDtyDtwwclsMg4IgodyJqbBwri2mj1HIKU7+xO+zGe/wuv//k4qvvFV13rx3xtfcIH9zLweo843q6iu7h2tO4cruL6hJ+OEF2zbhJ/coIzE1FkqsFjkasVFnW+Kh4fzeQLdvUNk6fXsctulMYcPtmojiELpCXg2k7twQCCUbCNAR7+QaMUSqK5IM8SITxaovuk7HMPsIGGnrb4b0tIqCjXvflIbov2s0a9g9kLJH26W39L4OE/h2H1fKePOB/5f0nP7nwvv2cc47gyVX7L+Hth33ZgBk+xcgf4SdOyuzbRmK+vdVv5alGg6guoRmqroLb9xSLhsAJPAS9yTMEAuZbrkbU4xyYUyeKylU55LwRdocX7iQr5wrg2JOYDd61xGE5GbfnRi5iTiM+BiirnIDhJzag9KLGJujn4e6/39rd97r4vSp6ZLfgHULwJsU9HDFnLvK/QMRX3G/v5M/HPWszpy8tMnNHoufWJkjJdmaRFbhaYdGVPfl4LA/MaSkWZq6Y+TcJic/BT/ICM1AxMM2EIB04SISyzpu6HvaG1IIxvAq7Tx60A1GylDjUClFF8K5FzlvKXLqQ7Oi1f98eAM+oshmTAbhAnU0f22VnjzPyR1mL55hzF5iRU8zwaUb8JEu/Idp9x8kdc0uCZ0csy01G5hgzdzTDc2sSX6xu30SaX4AClkKyXZ3bYYrgu6TQR7rMphOLgLZvCdwX1JNeyFKWkSyWglg5Jcw3pqLItgas+NKs89ArgZzXIBFWhJGMAACuRnePtu4boIJOHBLqZAeXLfBgOvLHa2Qu5blk6KEIvNhBAHgy1QcDFYQf8+iQHUKDnTm6aBeW56rwoT3iKx44uZMIH97Dst5c9M0c2yhStvN4NLsquH46IU2bHolN77QIg3Ud4L0NFQvdiYKRBVrOYzdCm6vcxOm5LIRQQWt0fERx8LQG1mE9th14eDwzlRq16gtwMuV4oLqfaGqDtQOx9auQ0+JCy61PEVLCFFd98Vs3UysVP8HeIstxnfcNLHhuKL7+bicv/mcoI35iMXZmzQBl25fHvcqYypGMZ9I/uHJPNoC7eHH9uOA4aAI2Bza3o6JJqRbLFXAUQsUyrcBIpqJ6AThmA65QLDP5lEBHZ20ltldRxYdfz9vTvGZ2lr+pfKgiVhEmRybufdgWwpunTp3VQjQjtrU0gWFPPo/x3LeJZoLidgQAaZt2y3kMeT1qbIIUhy9dWnTAyB1lxk6y1ZuiOw46Eu2/jXskZAYvL3LSx7t51qp6M9rwbo8yK5P1vdwP/QNZqaMC+IrNMs53VtO1fXGmUUZ2KqLcLdDZcedI2CZiohIPKoDDBSMhPvYWVCSJ4tnt0YBlG1VXEbwSnESPt/DODWSo8E3F1hRkD/OjiGeNOuACA8JmiZu6H1uvO5Urpi7FUKHkWNmjju6FPT4VvDgQX3m/I9HNd7GVW4zU8cXFajn4dPVybOOhBqqZEvV5Xyw0EVcmiQaIytn6iVc/vRiJbsAFCszlIya5Q1QRCtbksoHf6G92SpQ+12d5U2IJtU9XyUGWuz0cdGJh0sFFA+ykOg3Os6Og5zE9qleocssLhMvUblQ0MXOCtu/V2VTN6peGdjk9Q6rvFjtzzBEzcEX46G5npR/Gd4i29khS4LoOjtW9BROkAzHtvMJdXbVMegtV7lsfSVlrBG0XV0jFxKej8w7IasrhaIZNdSTuN5+8LvkzMJeBc1URzeQzwzBQlKpUn/QzCGlrljbIPYO3IOzXoVQ83waO0kAcaVc20xHyB4kE3C3Qag5vQRkaR5Zf61jMDJ3mv084c3JfpmgljJ/6JXXP223fNcCclsL9okD0/B4FUJy0hIx2b9pYpoeKKtPMjMZe0fw6duuZu/a3RJddhzPzd3LaaRvcCPGTBK4JLKQXD9PuDsZG3ocoqHok6robyIIxX091yHhmBsT1dNFu6wM7LsrimzARV/MRiIzq2aZle/kyZWpu0R5Lv8H7teSedgUvDJwQX3mf4MU+e4i1GaEHam9jCIRr+MCqU2ebiK62NwJXo+Jy0indsaYJxyrg4vxSgyDagkUpIf2C5RCyXMVwnFRE2Soz0HVimFt1BlhfsJMGL6r6qX8wLZyOTUWVWZ3hui0Ll6t86wCQ7ALphbcxDuObFrC5j4rY2asOOGTJ2oQT4qvu41y0WMFLVoLEqWF6oG4JdbLbw15GyvrqFFcvw2QJUpewoCJLoa2BdByLa4/RhsVe6bs7GDlTcbAQq0JJreoMDBxd7KiYEtG3msOGpYHX8k94yQJw7eS021WnOkyLBHkfwjBIZLETF4tet2bA+XAsS1KHpx+3Fq7nzhLA+65jA0pnoSrip686YCROcE96ouvvOfnJhffv479HCJ9YvSs7vnyOkTti5Rc7PUYJqbrj6QXc8jwsogDw239a4GFi54vvyCOc0laTjYeP6FI0OIngdELKkeo6O87oeMxyKwKLiexJ7006Pu0A3/lUB4RupeXObc7zrzk9xrps9cdZSkPOWIlqeIg6SKGAp9qqZqdyhWFTvapc29jBQzPWT/qyAP9LhHs0ZHnWmNGT38P7Cvl5K/E197K0m4tWoSsXTGBG1Z6BojQYCRHY59oUwPKcmW0A0Iq/XWL9ca/pwp8ENkfQdtHn2qwT4Vk7XCeQLbpDUHUlXo/s9nCQ0SDyyEZFlixbA04xBw/W3a5H6SrRW2tlMqnlMiUHjNGxhg7WnVZVWs5joHRuEZ6138xAh+dtXXXVfp2BX+JDVdWPSXe56DQ/7UuT+O+QJz35ycVX3i/aeztj7ZRNYvDGPKbWgAkwK2A+PVXNRx+pt6+JTTlOuHC1W5ONEpizFBVhojuPlEAKH3XpZ3kOhHvP26P4ZvMl6gG7cD0dzpGHm+TLJSs5tdMZXAEA0O7uVPrcc6YfPLhwvu4ItxTAKpG9GxVhinoD3cRHNQ1hJyCjGWWhoYaBkbPOMGKn35n/Udv2W3T9Pdy/cs55e9HqE2qlYIdYe+4MGJamaknNVYCQZbwUFWUeyB5Yw0Q9S7JtXYGF3aj4so4zkK8u9279RSfuvTytqqj0/ljbM3upDfWUK3H1sqtEDwQn0X/Vi1FCnVzOFq4DxpidGtTfBSiQhbKZ7auy3JuO2ANz/ueo8JE9ot13/LztDiDuoZjpX2M5r9kVj5OjVU1IFWsgdBH/BnX4YiUBp91Eenpbuu3KQZteLbXPm7WH3NZ9U4iKUGKN/BO20C62KBU6x8gKaJ+LijMBXSYHGa7b3a/gk0OWmQDzVJQ9bQO644nlO+HgNeF9+8VX3/cwJ/954R2HOOfct3wGRvao1YuXaJlPX9WI5PEFVtxVeGtnBOwj+lcq1jj2tDu5w/UbWwg/q81SGvgbViKdBmfQApVzCb39vhOAHndHC9GO2R0BLOQmsMM7Ac55KKXs3xTmqbOCV+Qejnh/5hyc/j0OPfHsOjjZYf6axxvwnUYnsFRTAzgRFW8su0z2gNx1YnATWp3dAaffRKlIP/6EN9BiBdcWkj53CsD1c1Siok3dK9ZCm6+QoH+oyCpA6Vm5KzhGYnpYRv4oyz+euNn8N77TBTC1kvlulOFOpzFr0nVyAn7bOgq663GdJQHn6T2oiDNP1mBkAe2vuyBh644RAkujLQQUnEZHxRrT4xwJyDn9SwvGZ88lgZyb6qiYF0sX7QpknMVUMD+p2JkgZyY6xamfWrd8IcMFcKflzLcH9/9XTzUnebwAm5PMI+CK7FpzAtZ1xH52oncbjCzgnjyVgNsxlfpfpPaQ18qlE/W5sDf/XALy2aoKtf29hjvgVJuKPH+pDGC/oEB/V79b2CyRgUyE9cB+ttPuxU+4Py5w6GmkWUvbWjkAOeOqgt2ss+NOBnLkFv8JDVcAUK+oUDO6LlXGmwQyWlFxZ0z7sWJqyN6zC9HaYDb7GVJD3nppndh5HMcZ0NZYdm4h9jOkdwXkNbKTjvOJ+rbe1/4c6umb7JovfuNHRXOM96VhC6Mv9ngykFOYmfvSv249Ge7nHtdy6STg5ShcZgPAkLGqXghmxXMCSGZGxZ5xbNc3tge01z14kJnxW9zpJ+69imTSAvZdx/uyVPyxOOEGDoDfFUdzCkue47/QnifQQnbqY2PmMVoT6O6RRusu479uNf1dlcaR5kpfD537docnPwvv+18so6Aal3Gt5+3aA7YZd7PkXf9bdY1AwN74/3ymFIzS9XbRIrVvsey8/1Fpt9YfGwPg3FWyrysF5xaeZycA8tTL85kfPD9DSwWsBRC6UDWUiPNMN0l3JADeU61nyef0lqtVBoB8PCth33HMoXmIWdjz1p/aP/tpuPvvfq330O3e7wYL/PezxtWfGrmwDVi35XwtA2Xy/RdeI8tj3etYBUDoYjXy2H6/VCLiuboD4H6C4lb8/lXnXPYA1qxtQSUhbuV9Ga8GZY1lx7SfPiTVr7J1Oj3pzyQD8D1tfuk4k/cLyhoIwL1gtVnXJlk0WU53jrPZygDWiuTjAkyJdh73dV8edho8Pv+SNQD3yn+qrCnhSvSCBorRMLlaC8C3WH4peWUKu60vA7L3ddapqyNcEOQqflh3AM28VH/Kh0pF9Lm+8dQGAK5OZ5xyqFle1rNQXcv71VnMk7+QZ9n/kv66U7oCsLXuYW+czoJKSOa5m2Q5ZUBuvAmtT14tTxVPs/yVTHX3u2Fsw13fKlXRD57iDDYAXAv0szJn0VHRxzTVWVNqAW3KLTcrEnPwKFTJg2U8+5iVPctFr29tALROJfYwpZKSUummDgRgnq3zo27gCP1N9QPYly91s8x/3pK+WkB+kAzS8rJAdFblGS8/AYB9jgIlF0n2bkrsuEGKHM4AAGgzF8tCpSamq/a0O9STwUjOrVPMlS/DDtexfvIaLVTKMmDkKTIWKSUV4/MVilvLAADvAvl+8ZQnKb9emvLF029+xDP6AQDklH2szzEchymVnGQvmol5SEfXGi+62TOdqM5uNWud+VSzzf7BSzrLACB/7IpLW1CpiePhzzoT6esI2mFZR4l6QVT/NW8NV5Ck8GIXvYReUtZNRc52JBAmZ74illSiUvWs1iCN91x/PD+VpFjUXal2tTlbecIhy7h0TvtA2WbmEFVU8PZ32bnXrXnZp9sigEpW5i6V6gq7PRxLVj7skcxlAAY/pyULrLHXxtlN9FRaUt3Nc5M5MtUzcBzaqGAbD81mdbaxrE4lKwH1V3umx8jWwJ3jUQ9emdIXySJtr5pMfwyrO141imdvuGzt3fZ4hcOYmVIJjOPiZWuNMrLVWaDCMrWnqbnSpeuoVMVniaMUTXfRR+vorJtrsaMvNHu6ovO9wtxU+qKrn/uTbTd7l6l+/V2clsyUd8q9ijas4kMn180U/pvCf1P47x0OAQA=;" parent="1" vertex="1">
                    <mxGeometry x="26.710000000000008" y="160" width="583.29" height="193.31" as="geometry"/>
                </mxCell>
                <mxCell id="7" value="Grants" style="rounded=0;whiteSpace=wrap;html=1;fontSize=20;fontStyle=1" parent="1" vertex="1">
                    <mxGeometry x="40" y="400" width="200" height="60" as="geometry"/>
                </mxCell>
                <mxCell id="8" value="Authorization Code" style="rounded=0;whiteSpace=wrap;html=1;fontSize=16;" parent="1" vertex="1">
                    <mxGeometry x="60" y="470" width="160" height="60" as="geometry"/>
                </mxCell>
                <mxCell id="9" value="Implicit" style="rounded=0;whiteSpace=wrap;html=1;fontSize=16;" parent="1" vertex="1">
                    <mxGeometry x="60" y="540" width="160" height="60" as="geometry"/>
                </mxCell>
                <mxCell id="10" value="&lt;h5&gt;Resource Owner Password Credentials&lt;/h5&gt;" style="rounded=0;whiteSpace=wrap;html=1;fontSize=16;" parent="1" vertex="1">
                    <mxGeometry x="60" y="610" width="160" height="60" as="geometry"/>
                </mxCell>
                <mxCell id="11" value="Client Credentials" style="rounded=0;whiteSpace=wrap;html=1;fontSize=16;" parent="1" vertex="1">
                    <mxGeometry x="60" y="680" width="160" height="60" as="geometry"/>
                </mxCell>
            </root>
        </mxGraphModel>
    </diagram>
</mxfile>